# xmcd
#
# Track frame offsets: 
#        150
#        18343
#        33038
#        51672
#        73502
#        92382
#        104973
#        130981
#        147229
#        171902
#        190438
#        220517
#        241046
#        260324
#        285817
#        303644
#        315735
#        327993
#
# Disc length: 4698 seconds
#
# Revision: 6
# Processed by: cddbd v1.5.2PL0 Copyright (c) Steve Scherf et al.
# Submitted via: ExactAudioCopy v0.95b4
#
DISCID=02125812
DTITLE=Saxon - Denim And Leather (Remastered 2009)
DYEAR=1981
DGENRE=Heavy Metal
TTITLE0=Princess Of The Night
TTITLE1=Never Surrender
TTITLE2=Out Of Control
TTITLE3=Rough And Ready
TTITLE4=Play It Loud
TTITLE5=And The Bands Played On
TTITLE6=Midnight Rider
TTITLE7=Fire In The Sky
TTITLE8=Denim And Leather
TTITLE9=20,000 Ft (Remix - B-Side Of Never Surrender)
TTITLE10=Bap Shoo Ap (Live At Castle Donington 1980 - B-Side Of Never 
TTITLE10=Surrender)
TTITLE11=Intro - And The Bands Played On (Denim And Leather Tour - Liv
TTITLE11=e 1981)
TTITLE12=Princess Of The Night (Live At The Rainbow 16-12-81)
TTITLE13=Midnight Rider (Live At The Hammersmith Odeon 25-10-81)
TTITLE14=Never Surrender (Live At The Hammersmith Odeon 25-10-81)
TTITLE15=Fire In The Sky (Live At The Hammersmith Odeon 25-10-81)
TTITLE16=Machine Gun (Live At The Hammersmith Odeon 25-10-81)
TTITLE17=Play It Loud (Live At Wolverhampton 17-12-81)
EXTD=
EXTT0=
EXTT1=
EXTT2=
EXTT3=
EXTT4=
EXTT5=
EXTT6=
EXTT7=
EXTT8=
EXTT9=
EXTT10=
EXTT11=
EXTT12=
EXTT13=
EXTT14=
EXTT15=
EXTT16=
EXTT17=
PLAYORDER=
